<?xml version="1.0" standalone="no"?>
<svg viewBox="0 0 200 200" xmlns="http://www.w3.org/2000/svg">
  <path fill="#F2F4F8" d="M36.8,-47.1C47.9,-42.5,57.2,-32.1,58.2,-20.9C59.2,-9.6,51.8,2.4,46.6,14.1C41.4,25.9,38.5,37.4,31.1,48.5C23.7,59.6,11.8,70.4,-2.5,73.9C-16.9,77.3,-33.8,73.5,-46.6,64.2C-59.4,54.8,-68.1,39.9,-67.1,25.8C-66.1,11.8,-55.4,-1.4,-51.4,-17.6C-47.4,-33.9,-50.1,-53.4,-42.7,-59.1C-35.3,-64.9,-17.6,-57,-2.4,-53.7C12.8,-50.4,25.7,-51.7,36.8,-47.1Z" transform="translate(100 100)" />
</svg>
