<svg xmlns="http://www.w3.org/2000/svg" version="1.1" xmlns:xlink="http://www.w3.org/1999/xlink" xmlns:svgjs="http://svgjs.com/svgjs" width="350" height="700" preserveAspectRatio="none" viewBox="0 0 350 700"><g mask="url(&quot;#SvgjsMask1049&quot;)" fill="none"><rect width="350" height="700" x="0" y="0" fill="rgba(255, 99, 71, 1)"></rect><path d="M163.62 633.94 a26.33 26.33 0 1 0 52.66 0 a26.33 26.33 0 1 0 -52.66 0z" stroke="rgba(218, 255, 0, 0.83)"></path><path d="M83.11 133.2L83.16 133.2L83.16 133.25L83.11 133.25z" stroke="rgba(255, 255, 255, 0.81)"></path><path d="M232.64 86.26 a12.18 12.18 0 1 0 24.36 0 a12.18 12.18 0 1 0 -24.36 0z" fill="rgba(218, 255, 0, 0.83)"></path><path d="M206.67 568.68 a26.45 26.45 0 1 0 52.9 0 a26.45 26.45 0 1 0 -52.9 0z" fill="rgba(218, 255, 0, 0.83)"></path><path d="M208.06 281.05L208.18 281.05L208.18 281.17L208.06 281.17z" stroke="rgba(218, 255, 0, 0.83)"></path><path d="M288.99 650.93L292.21 650.93L292.21 654.15L288.99 654.15z" fill="rgba(255, 255, 255, 0.81)"></path><path d="M17.75 160.47L47.37 160.47L47.37 190.09L17.75 190.09z" fill="rgba(255, 255, 255, 0.81)"></path><path d="M68.82 682.09L77.14 682.09L77.14 691.85L68.82 691.85z" stroke="rgba(218, 255, 0, 0.83)"></path><path d="M317.45 106.47a32.61 32.61 0 1 0-39.76-51.7z" fill="rgba(255, 255, 255, 0.81)"></path><path d="M75 587.18 a4.33 4.33 0 1 0 8.66 0 a4.33 4.33 0 1 0 -8.66 0z" fill="rgba(255, 255, 255, 0.81)"></path><path d="M290.85 113.82L293.81 113.82L293.81 138.49L290.85 138.49z" stroke="rgba(218, 255, 0, 0.83)"></path><path d="M222.6 257.31 a33.81 33.81 0 1 0 67.62 0 a33.81 33.81 0 1 0 -67.62 0z" stroke="rgba(255, 255, 255, 0.81)"></path><path d="M46.94 8.12L61.35 8.12L61.35 13.19L46.94 13.19z" fill="rgba(218, 255, 0, 0.83)"></path><path d="M49.55 15.2a16.9 16.9 0 1 0 4.77 33.46z" fill="rgba(255, 255, 255, 0.81)"></path><path d="M344.66 211.97L362.72 211.97L362.72 231.62L344.66 231.62z" stroke="rgba(255, 255, 255, 0.81)"></path><path d="M206.33 644.79 a10.35 10.35 0 1 0 20.7 0 a10.35 10.35 0 1 0 -20.7 0z" stroke="rgba(255, 255, 255, 0.81)"></path><path d="M142.18 175.92a20.79 20.79 0 1 0-25.23 33.05z" fill="rgba(218, 255, 0, 0.83)"></path><path d="M200.8 160.44a1.09 1.09 0 1 0 0.98 1.95z" stroke="rgba(218, 255, 0, 0.83)"></path><path d="M-4.27 442a23.74 23.74 0 1 0 13.39 45.55z" stroke="rgba(218, 255, 0, 0.83)"></path><path d="M144.84 574.94L156.12 574.94L156.12 586.22L144.84 586.22z" fill="rgba(255, 255, 255, 0.81)"></path><path d="M160.94 591.8 a2.08 2.08 0 1 0 4.16 0 a2.08 2.08 0 1 0 -4.16 0z" fill="rgba(218, 255, 0, 0.83)"></path><path d="M58.64 21.74L84.28 21.74L84.28 49.03L58.64 49.03z" fill="rgba(255, 255, 255, 0.81)"></path><path d="M52.02 160.8L57.58 160.8L57.58 182.01L52.02 182.01z" fill="rgba(218, 255, 0, 0.83)"></path><path d="M99.6 613.28 a33.26 33.26 0 1 0 66.52 0 a33.26 33.26 0 1 0 -66.52 0z" fill="rgba(218, 255, 0, 0.83)"></path><path d="M75.07 272.89 a18.04 18.04 0 1 0 36.08 0 a18.04 18.04 0 1 0 -36.08 0z" stroke="rgba(255, 255, 255, 0.81)"></path></g><defs><mask id="SvgjsMask1049"><rect width="350" height="700" fill="#ffffff"></rect></mask></defs></svg>