<svg xmlns="http://www.w3.org/2000/svg" version="1.1" xmlns:xlink="http://www.w3.org/1999/xlink" xmlns:svgjs="http://svgjs.com/svgjs" width="700" height="950" preserveAspectRatio="none" viewBox="0 0 700 950"><g mask="url(&quot;#SvgjsMask1098&quot;)" fill="none"><rect width="700" height="950" x="0" y="0" fill="rgba(255, 99, 71, 1)"></rect><path d="M0,404.315C72.955,389.351,130.231,340.106,190.147,295.874C246.208,254.488,297.627,211.06,338.364,154.526C387.292,86.625,456.595,18.735,449.967,-64.695C443.32,-148.361,367.779,-208.558,305.086,-264.359C248.466,-314.755,183.814,-362.323,108.292,-368.809C37.718,-374.87,-19.827,-318.926,-87.524,-298.079C-154.006,-277.606,-229.913,-289.147,-285.632,-247.501C-346.939,-201.679,-407.663,-135.182,-407.872,-58.643C-408.081,17.906,-312.598,58.894,-286.667,130.917C-256.963,213.421,-311.342,325.199,-247.886,385.718C-186.684,444.088,-82.849,421.308,0,404.315" fill="#ff2c06"></path><path d="M700 1260.535C773.867 1282.2269999999999 853.216 1329.348 923.259 1297.397 992.854 1265.65 1016.158 1177.98 1040.181 1105.356 1062.292 1038.512 1065.458 968.584 1055.059 898.95 1044.705 829.617 1021.929 763.473 980.665 706.803 936.79 646.547 886.5840000000001 576.085 812.715 566.1279999999999 739.011 556.193 682.503 628.242 614.082 657.3910000000001 555.692 682.267 478.821 674.514 440.159 724.847 401.611 775.032 434.678 848.1659999999999 420.223 909.774 403.734 980.053 319.674 1044.331 349.811 1109.926 379.972 1175.5720000000001 481.26800000000003 1158.546 547.633 1187.088 600.498 1209.824 644.785 1244.32 700 1260.535" fill="#ff9a88"></path></g><defs><mask id="SvgjsMask1098"><rect width="700" height="950" fill="#ffffff"></rect></mask></defs></svg>