<svg xmlns="http://www.w3.org/2000/svg" version="1.1" xmlns:xlink="http://www.w3.org/1999/xlink" xmlns:svgjs="http://svgjs.com/svgjs" width="600" height="800" preserveAspectRatio="none" viewBox="0 0 600 800"><g mask="url(&quot;#SvgjsMask1084&quot;)" fill="none"><rect width="600" height="800" x="0" y="0" fill="rgba(255, 99, 71, 1)"></rect><path d="M0,277.197C51.292,275.13,98.477,246.421,135.538,210.901C168.847,178.976,174.592,130.388,195.882,89.456C218.663,45.656,269.36,11.073,265.052,-38.109C260.75,-87.218,213.882,-121.428,174.779,-151.447C140.908,-177.45,97.13,-180.311,57.888,-197.148C11.746,-216.945,-26.061,-263.547,-76.071,-259.075C-127.238,-254.5,-169.227,-214.519,-200.823,-174.014C-231.498,-134.69,-251.654,-85.81,-250.111,-35.961C-248.673,10.496,-210.564,45.095,-192.711,88.008C-174.008,132.963,-177.488,188.003,-142.743,222.113C-105.597,258.58,-52.013,279.293,0,277.197" fill="#ff2c06"></path><path d="M600 1048.1970000000001C647.231 1052.577 701.301 1042.461 733.342 1007.485 764.817 973.127 752.3340000000001 919.1179999999999 760.3050000000001 873.2090000000001 766.072 839.992 773.447 808.738 773.704 775.025 774.005 735.58 784.494 692.0409999999999 761.934 659.683 739.034 626.837 696.304 612.5699999999999 656.636 607.115 619.918 602.066 586.658 623.621 550.252 630.5740000000001 508.78499999999997 638.494 456.573 619.894 427.83000000000004 650.813 399.254 681.553 422.06399999999996 732.028 417.18600000000004 773.715 412.478 813.95 387.799 852.756 399.666 891.489 411.997 931.736 448.502 958.21 481.657 984.145 517.717 1012.352 554.414 1043.97 600 1048.1970000000001" fill="#ff9a88"></path></g><defs><mask id="SvgjsMask1084"><rect width="600" height="800" fill="#ffffff"></rect></mask></defs></svg>